<?xml version="1.0" standalone="no"?>
<!DOCTYPE svg PUBLIC "-//W3C//DTD SVG 20010904//EN"
 "http://www.w3.org/TR/2001/REC-SVG-20010904/DTD/svg10.dtd">
<svg version="1.0" xmlns="http://www.w3.org/2000/svg"
 width="1062.000000pt" height="1062.000000pt" viewBox="0 0 1062.000000 1062.000000"
 preserveAspectRatio="xMidYMid meet">
<metadata>
Created by potrace 1.11, written by Peter Selinger 2001-2013
</metadata>
<g transform="translate(0.000000,1062.000000) scale(0.100000,-0.100000)"
fill="#000000" stroke="none">
<path d="M4700 6608 c-203 -109 -370 -177 -576 -237 -74 -22 -108 -47 -102
-78 6 -31 48 -43 153 -43 55 0 117 -5 137 -10 74 -21 118 -94 135 -225 8 -69
8 -1607 -1 -1675 -18 -143 -50 -180 -213 -241 -57 -22 -81 -56 -66 -95 11 -29
54 -34 170 -18 103 13 710 16 818 3 78 -10 142 -13 177 -10 18 1 33 35 29 66
-4 26 -28 42 -76 51 -68 11 -78 13 -130 25 -59 14 -131 48 -172 83 -37 31 -78
115 -91 185 -15 85 -13 1499 3 1566 26 115 96 213 201 286 178 122 495 140
699 39 60 -30 195 -141 195 -160 0 -5 13 -28 28 -52 51 -77 85 -182 97 -298 9
-85 9 -1341 0 -1445 -12 -136 -33 -163 -178 -225 -89 -39 -102 -50 -93 -84 7
-28 54 -46 102 -40 141 20 673 26 834 11 193 -19 235 -14 246 28 13 51 -23 75
-136 89 -159 20 -244 66 -289 155 -48 92 -50 133 -51 831 0 488 -4 677 -14
743 -18 123 -14 176 18 230 66 115 233 229 398 273 77 21 240 23 318 5 222
-53 377 -204 459 -448 55 -163 60 -242 57 -963 -2 -726 1 -697 -68 -755 -18
-16 -70 -45 -115 -66 -89 -41 -106 -63 -79 -104 9 -14 24 -26 34 -26 35 -3 99
0 159 9 72 10 730 8 788 -2 118 -21 175 -7 175 43 0 35 -25 58 -70 66 -207 34
-293 85 -351 209 -50 108 -50 111 -54 835 -2 339 -6 634 -9 656 -4 22 -12 64
-17 92 -6 29 -10 54 -9 55 0 2 -11 36 -24 76 -111 325 -341 522 -665 570 -96
14 -312 5 -395 -17 -106 -28 -216 -77 -302 -134 -80 -53 -221 -182 -274 -251
-39 -50 -47 -54 -58 -28 -31 77 -193 259 -282 319 -75 49 -169 86 -275 108
-54 11 -269 14 -335 4 -221 -32 -417 -137 -601 -323 -36 -36 -69 -66 -72 -66
-3 0 -6 92 -6 205 0 217 -7 258 -46 263 -11 1 -72 -26 -135 -60z"/>
<path d="M3034 6635 c-17 -25 -18 -54 -18 -311 0 -156 -1 -284 -2 -284 -1 0
-17 24 -35 52 -88 144 -271 349 -372 417 -127 86 -244 109 -348 66 -113 -46
-282 -180 -310 -246 -15 -38 -7 -65 41 -135 67 -100 162 -194 196 -194 6 0 59
29 117 65 122 74 179 96 259 100 194 12 373 -124 434 -330 16 -54 18 -116 18
-659 1 -779 -3 -841 -68 -949 -56 -93 -138 -128 -341 -142 -103 -7 -123 -11
-147 -33 -23 -19 -23 -44 0 -72 15 -18 27 -22 77 -21 33 0 71 4 85 7 40 11
828 13 895 3 33 -5 90 -12 126 -15 59 -6 69 -4 88 15 11 11 21 29 21 39 0 26
-39 59 -80 67 -61 13 -135 51 -163 84 -24 29 -34 55 -53 136 -4 17 -8 393 -9
838 -3 834 -2 856 37 947 28 64 111 128 191 146 12 3 72 7 132 8 125 3 143 8
151 42 13 52 -22 79 -116 89 -75 8 -233 46 -285 69 -19 9 -52 23 -72 32 -85
36 -173 81 -261 132 -50 30 -110 56 -131 59 -34 5 -41 2 -57 -22z"/>
<path d="M3949 5953 c-36 -41 -122 -125 -152 -149 -33 -28 -27 -56 22 -91 38
-28 111 -103 111 -115 0 -4 11 -15 24 -23 32 -21 55 -9 95 49 17 24 53 60 80
79 27 20 52 46 56 58 8 23 3 29 -91 109 -16 14 -40 41 -54 60 -41 59 -56 63
-91 23z"/>
</g>
</svg>
