<svg id="Layer_1" data-name="Layer 1" xmlns="http://www.w3.org/2000/svg" width="24" height="20.79" viewBox="0 0 24 20.79"><title>ico-vimeo</title><path d="M24,6.42Q23.82,9.92,19.08,16q-4.9,6.37-8.29,6.37c-1.41,0-2.58-1.29-3.55-3.88L5.32,11.4Q4.24,7.52,3,7.52A7.41,7.41,0,0,0,1.13,8.65L0,7.2Q1.78,5.63,3.5,4.07,5.87,2,7.05,1.91q2.8-.27,3.45,3.84.7,4.43,1,5.51.81,3.67,1.78,3.67.75,0,2.27-2.39a9.37,9.37,0,0,0,1.61-3.63c.14-1.37-.4-2.06-1.61-2.06a4.35,4.35,0,0,0-1.78.39c1.19-3.87,3.43-5.76,6.76-5.64C23,1.67,24.12,3.27,24,6.41Z" transform="translate(0 -1.6)" style="fill:#fff"/></svg>