<svg xmlns="http://www.w3.org/2000/svg" width="253" height="35" viewBox="0 0 253 35">
  <g fill="#E9E9EA" fill-rule="evenodd">
    <path d="M2.3504 19.7965L5.2794 19.7965C6.6504 19.7965 7.8274 19.6135 8.8094 19.2395 9.7884 18.8685 10.5914 18.3585 11.2144 17.7165 11.8404 17.0775 12.2934 16.3275 12.5794 15.4655 12.8614 14.6085 13.0054 13.6855 13.0054 12.7015 13.0054 11.7335 12.8574 10.8105 12.5624 9.9385 12.2694 9.0715 11.8084 8.3125 11.1854 7.6665 10.5594 7.0175 9.7574 6.5125 8.7784 6.1495 7.7964 5.7805 6.6294 5.5935 5.2794 5.5935L2.3504 5.5935 2.3504 19.7965zM1.3274 26.3145L1.3274 4.7125 5.3904 4.7125C6.8274 4.7125 8.0864 4.9215 9.1674 5.3445 10.2464 5.7705 11.1464 6.3385 11.8654 7.0635 12.5824 7.7875 13.1224 8.6355 13.4864 9.6035 13.8464 10.5775 14.0264 11.6065 14.0264 12.7015 14.0264 13.5935 13.9114 14.4435 13.6784 15.2595 13.4454 16.0775 13.0934 16.8215 12.6194 17.4895 12.1434 18.1555 11.5514 18.7335 10.8454 19.2135 10.1384 19.7005 9.3024 20.0755 8.3454 20.3335L13.3604 26.3145 12.0904 26.3145 7.2744 20.5455C6.9764 20.5855 6.6734 20.6215 6.3714 20.6465 6.0634 20.6715 5.7414 20.6815 5.4014 20.6815L2.3504 20.6815 2.3504 26.3145 1.3274 26.3145zM22.1883 15.5181C22.1883 16.9781 22.4413 18.3241 22.9483 19.5481 23.4553 20.7851 24.1513 21.8511 25.0423 22.7621 25.9303 23.6721 26.9853 24.3761 28.2063 24.8831 29.4253 25.3931 30.7523 25.6461 32.1903 25.6461 33.6073 25.6461 34.9313 25.3931 36.1613 24.8831 37.3913 24.3761 38.4503 23.6721 39.3403 22.7621 40.2283 21.8511 40.9263 20.7851 41.4323 19.5481 41.9393 18.3241 42.1933 16.9781 42.1933 15.5181 42.1933 14.0621 41.9393 12.7171 41.4323 11.4871 40.9263 10.2591 40.2283 9.1861 39.3403 8.2761 38.4503 7.3671 37.3913 6.6541 36.1613 6.1461 34.9313 5.6341 33.6073 5.3771 32.1903 5.3771 30.7523 5.3771 29.4253 5.6341 28.2063 6.1461 26.9853 6.6541 25.9303 7.3671 25.0423 8.2761 24.1513 9.1861 23.4553 10.2591 22.9483 11.4871 22.4413 12.7171 22.1883 14.0621 22.1883 15.5181M21.1343 15.5181C21.1343 13.9251 21.4243 12.4511 22.0113 11.1011 22.5953 9.7431 23.3823 8.5711 24.3753 7.5861 25.3683 6.5991 26.5363 5.8301 27.8793 5.2851 29.2253 4.7351 30.6613 4.4621 32.1903 4.4621 33.7103 4.4621 35.1423 4.7351 36.4863 5.2851 37.8313 5.8301 39.0013 6.5991 39.9993 7.5861 40.9973 8.5711 41.7873 9.7431 42.3713 11.1011 42.9553 12.4511 43.2463 13.9251 43.2463 15.5181 43.2463 17.1111 42.9553 18.5811 42.3713 19.9331 41.7873 21.2811 40.9973 22.4471 39.9993 23.4361 39.0013 24.4241 37.8313 25.1891 36.4863 25.7391 35.1423 26.2881 33.7103 26.5601 32.1903 26.5601 30.6703 26.5601 29.2373 26.2881 27.8893 25.7391 26.5383 25.1891 25.3683 24.4241 24.3753 23.4361 23.3823 22.4471 22.5953 21.2811 22.0113 19.9331 21.4243 18.5811 21.1343 17.1111 21.1343 15.5181M48.3665 22.3419L49.2185 21.8629C49.8295 23.0499 50.6735 23.9789 51.7545 24.6449 52.8345 25.3099 54.0745 25.6459 55.4685 25.6459 57.2045 25.6459 58.5475 25.2329 59.4935 24.4039 60.4385 23.5759 60.9105 22.4979 60.9105 21.1629 60.9105 20.5099 60.8215 19.9249 60.6405 19.4029 60.4585 18.8819 60.1825 18.4029 59.8095 17.9689 59.4385 17.5339 58.9635 17.1309 58.3845 16.7509 57.8045 16.3729 57.1205 15.9919 56.3375 15.6119L54.3665 14.6499C53.6025 14.2649 52.9265 13.9019 52.3445 13.5569 51.7595 13.2099 51.2685 12.8309 50.8715 12.4179 50.4735 12.0029 50.1725 11.5419 49.9705 11.0369 49.7675 10.5289 49.6695 9.9259 49.6695 9.2199 49.6695 8.4979 49.8065 7.8429 50.0805 7.2549 50.3545 6.6649 50.7225 6.1629 51.1885 5.7499 51.6545 5.3379 52.2055 5.0149 52.8395 4.7949 53.4765 4.5719 54.1555 4.4629 54.8785 4.4629 56.1945 4.4629 57.2985 4.7049 58.1975 5.1899 59.0985 5.6759 59.8735 6.4529 60.5235 7.5179L59.7635 7.9519C59.2165 7.0609 58.5505 6.4049 57.7645 5.9799 56.9815 5.5569 56.0165 5.3439 54.8785 5.3439 53.6285 5.3439 52.6095 5.7129 51.8245 6.4459 51.0395 7.1799 50.6465 8.1059 50.6465 9.2199 50.6465 9.8119 50.7315 10.3189 50.9025 10.7419 51.0725 11.1669 51.3245 11.5489 51.6625 11.8889 51.9985 12.2319 52.4265 12.5509 52.9485 12.8579 53.4705 13.1639 54.0875 13.4869 54.8035 13.8289L56.7405 14.7909C57.6505 15.2369 58.4265 15.6779 59.0735 16.1249 59.7205 16.5699 60.2515 17.0409 60.6635 17.5499 61.0765 18.0559 61.3855 18.6089 61.5875 19.1999 61.7875 19.7969 61.8895 20.4519 61.8895 21.1629 61.8895 22.7769 61.3265 24.0809 60.2065 25.0709 59.0855 26.0649 57.5065 26.5599 55.4685 26.5599 53.7545 26.5599 52.3105 26.1749 51.1425 25.4029 49.9755 24.6369 49.0495 23.6139 48.3665 22.3419"/>
    <polygon points="66.784 26.314 75.577 4.184 75.701 4.184 84.509 26.314 83.455 26.314 81.734 21.956 75.646 6.802 69.515 21.956 67.793 26.314"/>
    <polygon points="91.797 26.314 91.797 4.712 92.819 4.712 92.819 25.429 103.256 25.429 103.256 26.314"/>
    <polygon points="105.567 4.712 106.605 4.712 114.453 24.579 122.299 4.712 123.292 4.712 114.484 26.853 114.359 26.853"/>
    <path d="M129.0047,15.5181 C129.0047,16.9781 129.2597,18.3241 129.7647,19.5481 C130.2727,20.7851 130.9687,21.8511 131.8567,22.7621 C132.7467,23.6721 133.8027,24.3761 135.0227,24.8831 C136.2427,25.3931 137.5707,25.6461 139.0077,25.6461 C140.4247,25.6461 141.7477,25.3931 142.9777,24.8831 C144.2077,24.3761 145.2667,23.6721 146.1567,22.7621 C147.0467,21.8511 147.7417,20.7851 148.2507,19.5481 C148.7577,18.3241 149.0097,16.9781 149.0097,15.5181 C149.0097,14.0621 148.7577,12.7171 148.2507,11.4871 C147.7417,10.2591 147.0467,9.1861 146.1567,8.2761 C145.2667,7.3671 144.2077,6.6541 142.9777,6.1461 C141.7477,5.6341 140.4247,5.3771 139.0077,5.3771 C137.5707,5.3771 136.2427,5.6341 135.0227,6.1461 C133.8027,6.6541 132.7467,7.3671 131.8567,8.2761 C130.9687,9.1861 130.2727,10.2591 129.7647,11.4871 C129.2597,12.7171 129.0047,14.0621 129.0047,15.5181 M127.9507,15.5181 C127.9507,13.9251 128.2447,12.4511 128.8287,11.1011 C129.4117,9.7431 130.2007,8.5711 131.1927,7.5861 C132.1847,6.5991 133.3527,5.8301 134.6967,5.2851 C136.0397,4.7351 137.4777,4.4621 139.0077,4.4621 C140.5257,4.4621 141.9597,4.7351 143.3037,5.2851 C144.6477,5.8301 145.8167,6.5991 146.8157,7.5861 C147.8137,8.5711 148.6047,9.7431 149.1877,11.1011 C149.7727,12.4511 150.0657,13.9251 150.0657,15.5181 C150.0657,17.1111 149.7727,18.5811 149.1877,19.9331 C148.6047,21.2811 147.8137,22.4471 146.8157,23.4361 C145.8167,24.4241 144.6477,25.1891 143.3037,25.7391 C141.9597,26.2881 140.5257,26.5601 139.0077,26.5601 C137.4877,26.5601 136.0537,26.2881 134.7067,25.7391 C133.3547,25.1891 132.1847,24.4241 131.1927,23.4361 C130.2007,22.4471 129.4117,21.2811 128.8287,19.9331 C128.2447,18.5811 127.9507,17.1111 127.9507,15.5181"/>
    <polygon points="156.516 26.314 158.922 4.277 159.063 4.277 167 20.16 174.971 4.277 175.096 4.277 177.499 26.314 176.552 26.314 174.46 7.28 167.001 22.063 166.891 22.063 159.525 7.254 157.433 26.314"/>
    <polygon points="186.011 26.314 186.011 4.712 198.463 4.712 198.463 5.594 187.032 5.594 187.032 15.3 197.285 15.3 197.285 16.184 187.032 16.184 187.032 25.429 198.9 25.429 198.9 26.314"/>
    <polygon points="206.603 26.314 206.603 4.712 207.626 4.712 207.626 25.429 218.061 25.429 218.061 26.314"/>
    <path d="M223.3324,15.5181 C223.3324,16.9781 223.5844,18.3241 224.0904,19.5481 C224.5954,20.7851 225.2944,21.8511 226.1844,22.7621 C227.0714,23.6721 228.1264,24.3761 229.3474,24.8831 C230.5694,25.3931 231.8964,25.6461 233.3344,25.6461 C234.7514,25.6461 236.0714,25.3931 237.3034,24.8831 C238.5344,24.3761 239.5934,23.6721 240.4814,22.7621 C241.3734,21.8511 242.0674,20.7851 242.5734,19.5481 C243.0844,18.3241 243.3364,16.9781 243.3364,15.5181 C243.3364,14.0621 243.0844,12.7171 242.5734,11.4871 C242.0674,10.2591 241.3734,9.1861 240.4814,8.2761 C239.5934,7.3671 238.5344,6.6541 237.3034,6.1461 C236.0714,5.6341 234.7514,5.3771 233.3344,5.3771 C231.8964,5.3771 230.5694,5.6341 229.3474,6.1461 C228.1264,6.6541 227.0714,7.3671 226.1844,8.2761 C225.2944,9.1861 224.5954,10.2591 224.0904,11.4871 C223.5844,12.7171 223.3324,14.0621 223.3324,15.5181 M222.2764,15.5181 C222.2764,13.9251 222.5694,12.4511 223.1524,11.1011 C223.7374,9.7431 224.5254,8.5711 225.5184,7.5861 C226.5084,6.5991 227.6784,5.8301 229.0214,5.2851 C230.3654,4.7351 231.8034,4.4621 233.3344,4.4621 C234.8514,4.4621 236.2814,4.7351 237.6284,5.2851 C238.9744,5.8301 240.1434,6.5991 241.1414,7.5861 C242.1384,8.5711 242.9294,9.7431 243.5124,11.1011 C244.0994,12.4511 244.3914,13.9251 244.3914,15.5181 C244.3914,17.1111 244.0994,18.5811 243.5124,19.9331 C242.9294,21.2811 242.1384,22.4471 241.1414,23.4361 C240.1434,24.4241 238.9744,25.1891 237.6284,25.7391 C236.2814,26.2881 234.8514,26.5601 233.3344,26.5601 C231.8134,26.5601 230.3794,26.2881 229.0274,25.7391 C227.6804,25.1891 226.5084,24.4241 225.5184,23.4361 C224.5254,22.4471 223.7374,21.2811 223.1524,19.9331 C222.5694,18.5811 222.2764,17.1111 222.2764,15.5181"/>
    <polygon points="0 28.328 .621 28.328 .621 6.439 0 6.439"/>
    <polygon points="75.646 17.29 73.243 21.988 78.049 21.988"/>
    <path d="M233.3177,3.169 C230.6267,1.7 227.0717,5.221 227.2817,2.237 C227.4877,-0.749 235.6357,4.426 233.3177,3.169" opacity=".7"/>
    <path d="M233.6009 3.3775C231.4579 1.3415 227.4969 3.2675 228.4829.7995 229.6999-2.2665 234.8389 4.5565 233.6009 3.3775M252.1761 15.6524C252.1761 16.4014 251.5691 17.0114 250.8171 17.0114 250.0681 17.0114 249.4591 16.4014 249.4591 15.6524 249.4591 14.9034 250.0681 14.2934 250.8171 14.2934 251.5691 14.2934 252.1761 14.9034 252.1761 15.6524M140.3656 15.6524C140.3656 16.4014 139.7576 17.0114 139.0086 17.0114 138.2566 17.0114 137.6476 16.4014 137.6476 15.6524 137.6476 14.9034 138.2566 14.2934 139.0086 14.2934 139.7576 14.2934 140.3656 14.9034 140.3656 15.6524"/>
    <polygon points="91.797 27.353 91.797 28.155 102.528 28.155 102.528 31.625 103.256 31.625 103.256 27.353"/>
    <polygon points="102.936 32.165 101.804 34.131 104.135 34.131"/>
  </g>
</svg>
